:SAMPLES-PER-SECOND 30
:FULLY-SPECIFIED
:DEGREES
420
root  -62.6966 36.6074 -18.7824 38.7491 -0.456161 1.96625
RightUpLeg  -79.8071 -21.4189 26.7305
RightLeg  42.4579 -2.45086 -2.70654
RightFoot  -9.65742 0.0838865 -10.0984
RightToes  0.00048216 0.542163 -0.142577
Spine  70.5211 -4.42456 6.65645
Spine1  9.93063 1.54915 -5.35865
HEad  -34.4471 -2.97673 -1.26874
LeftShoulder1  7.12411 -24.4541 -18.7968
LeftArm  -111.736 -75.0513 62.9446
LeftForeArm  14.2538 -7.95911 -2.4648
LeftHand  -0.25398 0.0180481 5.50724
RightShoulder  2.92939 11.581 12.3832
RightArm  -83.5763 61.2636 -32.7362
RightForeArm  -24.1138 11.4529 3.36307
RightHand  -0.242316 9.58763 -2.38643
LeftUpLeg  -79.9838 22.9721 -29.9152
LeftLeg  37.9988 -0.15143 0.250343
LeftFoot  -4.96173 -0.324327 6.35001
LeftToes  1.06246e-005 4.65855e-005 -8.185e-006
421
root  -62.7285 36.5818 -18.7695 38.6779 -0.456146 2.01602
RightUpLeg  -79.8508 -21.3958 26.6669
RightLeg  42.7402 -2.55567 -2.83589
RightFoot  -9.72696 0.0809753 -10.356
RightToes  0.00048216 0.542163 -0.142577
Spine  70.563 -4.51126 6.76814
Spine1  9.98455 1.56205 -5.48826
HEad  -34.5356 -3.08278 -0.722421
LeftShoulder1  6.9661 -24.6495 -17.9985
LeftArm  -111.098 -74.5301 62.8218
LeftForeArm  13.7578 -7.11745 -2.32706
LeftHand  -0.25398 0.0180481 5.50724
RightShoulder  2.89908 11.4956 12.2824
RightArm  -84.4408 61.4976 -33.1565
RightForeArm  -23.9163 11.251 3.20672
RightHand  -0.230093 9.33155 -2.31366
LeftUpLeg  -79.9903 22.9322 -29.7693
LeftLeg  38.1782 -0.0650474 0.323092
LeftFoot  -4.79621 -0.341108 6.46467
LeftToes  1.06246e-005 4.65855e-005 -8.185e-006
422
root  -62.7621 36.5616 -18.7556 38.6364 -0.451355 1.92531
RightUpLeg  -79.7528 -21.1767 26.5222
RightLeg  42.9237 -2.78819 -3.08434
RightFoot  -9.83959 0.0691027 -10.2914
RightToes  0.00048216 0.542163 -0.142577
Spine  70.6694 -4.53256 6.80018
Spine1  9.86977 1.56511 -5.60719
HEad  -34.6229 -3.12705 -0.0501242
LeftShoulder1  6.9139 -24.484 -17.96
LeftArm  -112.756 -74.4758 63.901
LeftForeArm  13.357 -7.06757 -2.08602
LeftHand  -0.25398 0.0180481 5.50724
RightShoulder  2.83009 11.2162 12.1706
RightArm  -85.7148 62.1117 -33.4318
RightForeArm  -22.5382 10.7652 2.86384
RightHand  -0.0792494 8.7979 -1.13808
LeftUpLeg  -80.1114 22.9892 -29.5706
LeftLeg  38.3792 0.0390008 0.411727
LeftFoot  -4.56504 -0.358758 6.51811
LeftToes  1.06246e-005 4.65855e-005 -8.185e-006
423
root  -62.8011 36.5444 -18.7488 38.618 -0.497894 1.83003
RightUpLeg  -79.6119 -20.8252 26.2862
RightLeg  43.0407 -3.04578 -3.35292
RightFoot  -9.81866 0.0727422 -10.4047
RightToes  0.00048216 0.542163 -0.142577
Spine  70.7882 -4.44528 6.62888
Spine1  9.68173 1.53753 -5.68576
HEad  -34.5816 -2.93892 0.355732
LeftShoulder1  6.85139 -24.1105 -18.0822
LeftArm  -116.07 -74.5556 66.3526
LeftForeArm  13.3523 -6.93428 -1.78858
LeftHand  -0.25398 0.0180481 5.50724
RightShoulder  2.76538 11.0026 11.9915
RightArm  -86.2411 62.6398 -33.2668
RightForeArm  -21.0717 10.4194 2.64678
RightHand  0.0749655 8.29752 0.143241
LeftUpLeg  -80.2713 23.1133 -29.4565
LeftLeg  38.5682 0.0688563 0.438233
LeftFoot  -4.35422 -0.369943 6.48328
LeftToes  1.06246e-005 4.65855e-005 -8.185e-006
424
root  -62.8395 36.5307 -18.7523 38.573 -0.49881 1.78802
RightUpLeg  -79.5033 -20.5657 26.1288
RightLeg  43.1244 -3.24529 -3.56116
RightFoot  -9.66606 0.0961469 -10.9785
RightToes  0.00048216 0.542163 -0.142577
Spine  70.882 -4.36889 6.40026
Spine1  9.57432 1.46871 -5.73799
HEad  -34.4424 -2.75436 0.457597
LeftShoulder1  6.6358 -23.8769 -17.4671
LeftArm  -118.122 -74.321 68.4534
LeftForeArm  13.5465 -5.92682 -1.58055
LeftHand  -0.25398 0.0180481 5.50724
RightShoulder  2.77605 11.1856 11.8086
RightArm  -85.1984 62.5705 -32.8141
RightForeArm  -20.6374 10.5967 2.85382
RightHand  0.0905724 8.1107 0.293595
LeftUpLeg  -80.3494 23.2045 -29.3663
LeftLeg  38.6908 0.0126779 0.390835
LeftFoot  -4.2039 -0.37331 6.38503
LeftToes  1.06246e-005 4.65855e-005 -8.185e-006
425
root  -62.8689 36.5212 -18.7616 38.5277 -0.354263 1.70351
RightUpLeg  -79.4369 -20.4854 26.2085
RightLeg  43.1509 -3.36274 -3.68146
RightFoot  -9.59461 0.1109 -11.4645
RightToes  0.00048216 0.542163 -0.142577
Spine  70.9284 -4.40009 6.37539
Spine1  9.56472 1.43043 -5.77016
HEad  -34.3264 -2.84588 0.404493
LeftShoulder1  6.32336 -23.8262 -16.2811
LeftArm  -117.869 -73.9398 69.0077
LeftForeArm  13.5724 -4.53521 -1.53588
LeftHand  -0.25398 0.0180481 5.50724
RightShoulder  2.83255 11.7206 11.4826
RightArm  -83.3316 61.9724 -32.2279
RightForeArm  -21.4372 11.0468 3.25017
RightHand  -0.0696448 8.09098 -1.07762
LeftUpLeg  -80.3768 23.2016 -29.1468
LeftLeg  38.7689 -0.0237072 0.359785
LeftFoot  -4.11629 -0.372767 6.29599
LeftToes  1.06246e-005 4.65855e-005 -8.185e-006
426
root  -62.8899 36.5165 -18.773 38.5452 -0.139771 1.56027
RightUpLeg  -79.4141 -20.4945 26.4347
RightLeg  43.1063 -3.40973 -3.72296
RightFoot  -9.72048 0.0946754 -11.2594
RightToes  0.00048216 0.542163 -0.142577
Spine  70.8922 -4.47952 6.56362
Spine1  9.59958 1.47415 -5.77511
HEad  -34.21 -3.13789 0.377187
LeftShoulder1  6.10297 -23.7731 -15.4541
LeftArm  -116.978 -73.8368 68.647
LeftForeArm  13.5526 -3.82462 -1.59286
LeftHand  -0.25398 0.0180481 5.50724
RightShoulder  2.8487 12.1656 11.0065
RightArm  -82.3311 61.4884 -31.6166
RightForeArm  -22.8285 11.2767 3.38264
RightHand  -0.36946 8.07968 -3.65104
LeftUpLeg  -80.4394 23.145 -28.8863
LeftLeg  38.8092 -0.022459 0.360793
LeftFoot  -4.09127 -0.370545 6.25293
LeftToes  1.06246e-005 4.65855e-005 -8.185e-006
427
root  -62.9088 36.5211 -18.7883 38.5963 -0.014801 1.46617
RightUpLeg  -79.3854 -20.4874 26.5678
RightLeg  42.9953 -3.43169 -3.73109
RightFoot  -9.90333 0.0669532 -10.61
RightToes  0.00048216 0.542163 -0.142577
Spine  70.782 -4.49455 6.72371
Spine1  9.66194 1.5473 -5.76776
HEad  -33.8935 -3.39757 0.510176
LeftShoulder1  6.0475 -23.6357 -15.3576
LeftArm  -116.757 -74.0128 68.4276
LeftForeArm  13.8432 -3.90561 -1.67135
LeftHand  -0.25398 0.0180481 5.50724
RightShoulder  2.82511 12.2003 10.796
RightArm  -83.0241 61.6561 -31.2939
RightForeArm  -23.9478 11.2889 3.19403
RightHand  -0.772954 8.26887 -7.01548
LeftUpLeg  -80.5197 23.157 -28.8484
LeftLeg  38.7456 -0.0878538 0.30413
LeftFoot  -4.10995 -0.369902 6.25573
LeftToes  1.06246e-005 4.65855e-005 -8.185e-006
428
root  -62.9241 36.545 -18.8122 38.5502 -0.0198059 1.43431
RightUpLeg  -79.1962 -20.4367 26.5135
RightLeg  42.7711 -3.48096 -3.75149
RightFoot  -9.91043 0.061808 -10.258
RightToes  0.00048216 0.542163 -0.142577
Spine  70.6919 -4.42038 6.69684
Spine1  9.74896 1.59196 -5.74086
HEad  -33.377 -3.37784 0.594877
LeftShoulder1  6.07306 -23.5011 -15.5833
LeftArm  -116.627 -74.1301 68.4205
LeftForeArm  14.4672 -4.10191 -1.78679
LeftHand  -0.25398 0.0180481 5.50724
RightShoulder  2.83283 12.0359 11.0631
RightArm  -84.5688 62.3407 -31.4293
RightForeArm  -24.3501 11.3693 2.9687
RightHand  -1.24876 8.77315 -10.668
LeftUpLeg  -80.5062 23.3431 -29.0673
LeftLeg  38.5352 -0.253702 0.162068
LeftFoot  -4.11585 -0.376678 6.35141
LeftToes  1.06246e-005 4.65855e-005 -8.185e-006
429
root  -62.923 36.5959 -18.8499 38.3055 -0.0626678 1.35307
RightUpLeg  -78.7115 -20.385 26.3668
RightLeg  42.3598 -3.55749 -3.77375
RightFoot  -9.65614 0.0893075 -10.4453
RightToes  0.00048216 0.542163 -0.142577
Spine  70.6712 -4.3221 6.56557
Spine1  9.85248 1.61583 -5.63173
HEad  -33.1189 -2.70696 0.182984
LeftShoulder1  6.13388 -23.4858 -15.8422
LeftArm  -115.723 -73.9912 68.0767
LeftForeArm  15.351 -4.07896 -1.9175
LeftHand  -0.25398 0.0180481 5.50724
RightShoulder  2.87346 12.0444 11.3419
RightArm  -85.5441 63.0757 -31.66
RightForeArm  -24.4138 11.3898 2.88938
RightHand  -1.71043 9.20995 -14.0097
LeftUpLeg  -80.2807 23.6726 -29.2588
LeftLeg  38.1976 -0.414785 0.027375
LeftFoot  -4.04626 -0.393394 6.5467
LeftToes  1.06246e-005 4.65855e-005 -8.185e-006
430
root  -62.8938 36.6727 -18.9038 37.8921 -0.0617676 1.19801
RightUpLeg  -77.9757 -20.4055 26.1989
RightLeg  41.7565 -3.62129 -3.75792
RightFoot  -9.25061 0.134196 -10.7271
RightToes  0.00048216 0.542163 -0.142577
Spine  70.6071 -4.27864 6.48915
Spine1  9.96964 1.60307 -5.41506
HEad  -33.1752 -1.75452 -0.491774
LeftShoulder1  6.26455 -23.6555 -16.2066
LeftArm  -113.912 -73.6674 67.077
LeftForeArm  16.4317 -4.05293 -2.04504
LeftHand  -0.25398 0.0180481 5.50724
RightShoulder  2.88055 12.1848 11.208
RightArm  -85.4756 63.778 -31.586
RightForeArm  -24.954 11.1172 2.9563
RightHand  -2.08684 9.24103 -16.9122
LeftUpLeg  -79.7789 23.9959 -29.2113
LeftLeg  37.7203 -0.490188 -0.0310377
LeftFoot  -3.8716 -0.414668 6.70267
LeftToes  1.06246e-005 4.65855e-005 -8.185e-006
431
root  -62.8376 36.7753 -18.9698 37.4061 -0.0258331 1.09384
RightUpLeg  -77.1309 -20.5636 25.9625
RightLeg  40.9923 -3.6492 -3.68788
RightFoot  -8.82288 0.176237 -10.6828
RightToes  0.00048216 0.542163 -0.142577
Spine  70.3736 -4.3306 6.51622
Spine1  10.0756 1.4971 -5.19288
HEad  -32.7778 -1.68388 -0.640487
LeftShoulder1  6.43961 -23.9848 -16.5914
LeftArm  -111.469 -73.36 65.4947
LeftForeArm  17.3958 -4.18323 -2.21946
LeftHand  -0.25398 0.0180481 5.50724
RightShoulder  2.83805 12.1657 10.9317
RightArm  -84.8899 64.7063 -31.3451
RightForeArm  -26.3857 10.7512 3.2079
RightHand  -2.51376 9.3605 -20.0306
LeftUpLeg  -78.9973 24.2228 -29.0628
LeftLeg  37.0003 -0.535706 -0.0604794
LeftFoot  -3.58445 -0.435249 6.73163
LeftToes  1.06246e-005 4.65855e-005 -8.185e-006
432
root  -62.7649 36.9154 -19.0404 36.8594 -0.0276031 1.13492
RightUpLeg  -76.1765 -20.8949 25.6139
RightLeg  40.0094 -3.61066 -3.53328
RightFoot  -8.34234 0.216798 -10.392
RightToes  0.00048216 0.542163 -0.142577
Spine  70.0362 -4.44732 6.58096
Spine1  10.117 1.34437 -5.10673
HEad  -32.5414 -1.62075 -0.51495
LeftShoulder1  6.56144 -24.3418 -16.7332
LeftArm  -108.961 -73.3664 63.5326
LeftForeArm  17.9446 -4.37351 -2.42843
LeftHand  -0.25398 0.0180481 5.50724
RightShoulder  2.80624 11.9955 10.9257
RightArm  -84.1103 65.8397 -31.166
RightForeArm  -28.3667 10.4811 3.63775
RightHand  -3.27696 10.5016 -24.0116
LeftUpLeg  -77.931 24.4429 -29.0578
LeftLeg  35.9257 -0.634321 -0.125365
LeftFoot  -3.16874 -0.464062 6.755
LeftToes  1.06246e-005 4.65855e-005 -8.185e-006
433
root  -62.6843 37.1034 -19.1118 36.1564 -0.13855 1.26654
RightUpLeg  -74.9502 -21.3928 25.202
RightLeg  38.7018 -3.44208 -3.23665
RightFoot  -7.67299 0.276318 -10.2025
RightToes  0.00048216 0.542163 -0.142577
Spine  69.7431 -4.54082 6.60026
Spine1  10.1039 1.2786 -5.14423
HEad  -32.2996 -1.69648 -0.282282
LeftShoulder1  6.61855 -24.5723 -16.7391
LeftArm  -107.066 -73.9204 61.4314
LeftForeArm  18.2968 -4.45125 -2.56423
LeftHand  -0.25398 0.0180481 5.50724
RightShoulder  2.82008 11.9495 11.085
RightArm  -82.9324 66.9049 -30.7847
RightForeArm  -29.8534 9.96497 4.04467
RightHand  -4.38925 12.594 -28.2294
LeftUpLeg  -76.5397 24.8236 -29.2032
LeftLeg  34.4852 -0.779669 -0.213005
LeftFoot  -2.61051 -0.5076 6.8472
LeftToes  1.06246e-005 4.65855e-005 -8.185e-006
434
root  -62.5945 37.329 -19.1815 35.232 -0.358627 1.36469
RightUpLeg  -73.3557 -22.0041 24.7932
RightLeg  37.0928 -3.1334 -2.81467
RightFoot  -6.8027 0.361438 -10.2368
RightToes  0.00048216 0.542163 -0.142577
Spine  69.4598 -4.57105 6.58474
Spine1  10.1266 1.31567 -5.16831
HEad  -31.9724 -1.79268 -0.247455
LeftShoulder1  6.72455 -24.7034 -17.0238
LeftArm  -105.249 -74.8637 58.9734
LeftForeArm  18.9336 -4.19764 -2.63963
LeftHand  -0.25398 0.0180481 5.50724
RightShoulder  2.86724 12.024 11.3243
RightArm  -81.4963 68.0748 -29.8953
RightForeArm  -29.7567 8.84586 4.24768
RightHand  -5.35682 14.3495 -31.2184
LeftUpLeg  -74.8454 25.4516 -29.3431
LeftLeg  32.804 -0.956312 -0.305952
LeftFoot  -1.96322 -0.552979 6.87866
LeftToes  1.06246e-005 4.65855e-005 -8.185e-006
